<?xml version="1.0" encoding="UTF-8"?>
<!DOCTYPE svg PUBLIC "-//W3C//DTD SVG 1.1//EN" "http://www.w3.org/Graphics/SVG/1.1/DTD/svg11.dtd">
<!-- Creator: CorelDRAW X6 -->
<svg xmlns="http://www.w3.org/2000/svg" xml:space="preserve" width="100mm" height="50mm" version="1.1" style="shape-rendering:geometricPrecision; text-rendering:geometricPrecision; image-rendering:optimizeQuality; fill-rule:evenodd; clip-rule:evenodd"
viewBox="0 0 10000 5000"
 xmlns:xlink="http://www.w3.org/1999/xlink">
 <defs>
  <style type="text/css">
   <![CDATA[
    .fil2 {fill:#0A960A}
    .fil1 {fill:#7DD22D}
    .fil0 {fill:#6E5A50;fill-rule:nonzero}
   ]]>
  </style>
 </defs>
 <g id="Слой_x0020_1">
  <metadata id="CorelCorpID_0Corel-Layer"/>
  <g id="_737175664">
   <path class="fil0" d="M2648 3787l136 -955 -399 955 -291 0 42 -960 -354 960 -170 0 539 -1461c-106,35 -188,93 -247,174 -59,80 -89,182 -89,305 0,29 1,51 5,68 3,17 6,30 10,41 3,10 7,17 10,23 3,5 5,10 5,15 -35,0 -66,-4 -94,-11 -28,-7 -52,-18 -72,-33 -19,-15 -35,-35 -46,-60 -11,-24 -16,-55 -16,-90 0,-45 9,-90 28,-136 18,-46 43,-90 76,-132 32,-42 70,-81 113,-117 43,-36 90,-68 140,-95 50,-27 102,-48 157,-63 54,-15 108,-23 162,-23 53,0 107,10 160,30l-48 1121 467 -1121 305 0 -223 1565 -305 0zm4387 -1232c0,-10 0,-28 -5,-68 -9,-69 -65,-163 -194,-236 -432,-245 -680,-379 -731,-955 -17,-192 -35,-282 -63,-359 -29,-77 -58,-125 -58,-125 218,166 566,243 793,431 170,140 298,425 325,637 25,198 26,385 26,385 0,0 82,-507 192,-714 110,-207 254,-493 687,-653 410,-152 827,-185 1370,-341 0,0 -187,123 -309,285 -122,162 -328,484 -510,699 -182,215 -419,344 -714,448 -236,83 -648,294 -736,568l-72 -4zm-3008 850c-30,50 -64,98 -102,145 -38,47 -81,89 -129,126 -48,37 -101,66 -159,89 -58,22 -122,34 -192,34 -50,0 -96,-6 -136,-19 -41,-13 -76,-33 -105,-60 -29,-27 -51,-62 -67,-104 -16,-43 -23,-94 -23,-154 0,-41 4,-88 12,-141 8,-54 22,-108 39,-164 18,-56 42,-111 72,-165 30,-54 65,-102 107,-145 42,-43 92,-77 148,-103 57,-26 121,-39 194,-39 48,0 87,6 117,17 30,11 54,26 71,45 18,19 30,40 36,65 7,24 10,50 10,76 0,62 -13,119 -40,172 -27,53 -63,99 -108,139 -45,40 -97,72 -156,96 -59,24 -120,38 -183,43 -1,16 -2,31 -4,45 -1,14 -1,27 -1,40 0,36 3,66 10,89 7,23 16,41 29,55 13,13 29,22 48,27 19,5 41,8 67,8 42,0 80,-5 115,-17 34,-11 66,-26 96,-46 30,-19 58,-42 84,-68 27,-26 53,-54 80,-84l72 0zm-579 -151c40,-3 79,-14 116,-34 37,-20 70,-46 99,-78 28,-32 51,-69 68,-110 17,-41 25,-84 25,-128 0,-26 -4,-48 -11,-63 -7,-16 -22,-24 -41,-24 -27,0 -53,13 -79,39 -26,26 -50,60 -73,101 -23,41 -43,89 -60,141 -18,52 -32,105 -42,157zm1393 151c-30,50 -64,98 -102,145 -38,47 -81,89 -129,126 -48,37 -101,66 -159,89 -58,22 -122,34 -192,34 -50,0 -96,-6 -136,-19 -41,-13 -76,-33 -105,-60 -29,-27 -51,-62 -67,-104 -16,-43 -23,-94 -23,-154 0,-41 4,-88 12,-141 8,-54 22,-108 39,-164 18,-56 42,-111 72,-165 30,-54 65,-102 107,-145 42,-43 92,-77 148,-103 57,-26 121,-39 194,-39 48,0 87,6 117,17 30,11 54,26 71,45 18,19 30,40 36,65 7,24 10,50 10,76 0,62 -13,119 -40,172 -27,53 -63,99 -108,139 -45,40 -97,72 -156,96 -59,24 -120,38 -183,43 -1,16 -2,31 -4,45 -1,14 -1,27 -1,40 0,36 3,66 10,89 7,23 16,41 29,55 13,13 29,22 48,27 19,5 41,8 67,8 42,0 80,-5 115,-17 34,-11 66,-26 96,-46 30,-19 58,-42 84,-68 27,-26 53,-54 80,-84l72 0zm-579 -151c40,-3 79,-14 116,-34 37,-20 70,-46 99,-78 28,-32 51,-69 68,-110 17,-41 25,-84 25,-128 0,-26 -4,-48 -11,-63 -7,-16 -22,-24 -41,-24 -27,0 -53,13 -79,39 -26,26 -50,60 -73,101 -23,41 -43,89 -60,141 -18,52 -32,105 -42,157zm1162 151c-20,57 -42,107 -66,150 -25,42 -50,78 -77,107 -27,29 -54,53 -82,71 -28,18 -55,32 -81,41 -26,10 -51,16 -75,20 -24,4 -45,5 -64,5 -32,0 -61,-5 -89,-15 -28,-10 -52,-25 -72,-46 -20,-21 -36,-47 -48,-79 -12,-32 -18,-71 -18,-116 0,-19 1,-40 4,-64 3,-23 7,-48 12,-75l127 -597 -70 0 18 -85 69 0 64 -294 314 -43 -72 336 127 0 -17 85 -127 0 -136 638c-4,12 -6,23 -7,35 -1,11 -2,23 -2,34 0,30 7,50 21,62 14,11 36,17 65,17 20,0 41,-5 60,-14 20,-10 38,-22 54,-39 17,-17 31,-37 45,-60 13,-23 24,-48 32,-75l89 0zm-169 381l224 -1064 306 0 -27 132c19,-17 38,-33 57,-49 19,-16 40,-30 61,-42 21,-12 43,-22 66,-30 23,-7 47,-11 72,-11 24,0 45,5 64,13 18,9 34,21 46,35 12,15 22,32 28,51 6,20 9,40 9,60 0,19 -3,37 -9,56 -6,18 -16,35 -29,49 -13,15 -29,27 -48,36 -19,10 -42,14 -68,14 -20,0 -35,-4 -46,-11 -11,-7 -19,-16 -24,-26 -5,-10 -10,-22 -12,-34 -2,-12 -5,-23 -7,-34 -3,-11 -7,-19 -11,-26 -5,-7 -12,-10 -22,-10 -33,0 -60,7 -82,22 -22,15 -46,34 -72,59l-170 808 -305 0zm2082 -381c-20,57 -42,107 -65,150 -24,42 -48,78 -73,107 -25,29 -51,53 -77,71 -26,18 -52,32 -77,41 -25,10 -49,16 -71,20 -23,4 -43,5 -62,5 -60,0 -108,-16 -143,-49 -35,-33 -57,-82 -65,-146 -17,24 -36,48 -57,71 -21,23 -44,44 -69,62 -25,18 -54,33 -86,45 -31,11 -66,17 -104,17 -37,0 -72,-6 -106,-18 -34,-12 -64,-31 -90,-58 -26,-27 -47,-62 -63,-106 -16,-44 -24,-97 -24,-160 0,-48 5,-100 14,-156 10,-55 24,-111 45,-166 20,-55 45,-108 75,-160 30,-51 65,-96 106,-135 40,-39 86,-70 137,-93 51,-23 107,-35 169,-35 60,0 104,10 131,31 28,21 41,46 41,77l0 16 23 -113 305 0 -152 723c-4,12 -6,23 -7,35 -1,11 -2,23 -2,34 0,61 29,91 87,91 21,0 40,-5 58,-16 17,-11 34,-25 48,-43 14,-18 27,-39 38,-64 11,-24 20,-50 28,-77l89 0zm-534 -480c0,-6 -1,-14 -4,-23 -3,-9 -7,-18 -14,-27 -6,-9 -15,-16 -26,-22 -11,-6 -25,-9 -43,-9 -30,0 -58,10 -84,29 -27,19 -51,45 -73,77 -22,32 -42,69 -59,110 -17,41 -32,83 -44,126 -12,43 -21,86 -28,128 -6,42 -9,80 -9,113 0,41 4,72 11,95 7,22 17,39 27,49 11,11 22,17 35,19 12,2 23,3 33,3 16,0 33,-4 50,-12 18,-8 35,-20 51,-35 16,-16 31,-35 45,-59 13,-23 24,-51 30,-82l102 -480zm362 861l307 -1447 313 -43 -114 534c23,-25 46,-45 68,-60 23,-15 45,-27 66,-35 22,-8 42,-14 61,-17 19,-3 36,-4 53,-4 34,0 65,4 94,13 29,9 54,23 75,43 21,19 37,44 49,75 12,30 17,67 17,109 0,28 -2,59 -8,92 -5,33 -11,66 -19,101 -7,34 -16,68 -24,102 -8,34 -17,67 -24,98 -7,31 -14,60 -19,87 -5,27 -8,50 -8,70 0,26 6,48 18,65 12,17 34,25 67,25 34,0 57,-5 70,-13 -5,39 -14,72 -29,99 -14,27 -33,50 -53,68 -21,18 -45,31 -70,39 -26,8 -53,12 -81,12 -41,0 -75,-7 -102,-20 -27,-13 -49,-32 -66,-54 -17,-23 -28,-48 -35,-77 -7,-29 -10,-59 -10,-89 0,-36 5,-78 15,-126 10,-48 21,-98 33,-148 12,-51 23,-99 33,-146 10,-47 15,-88 15,-122 0,-73 -26,-109 -77,-109 -18,0 -35,5 -50,13 -16,9 -30,21 -43,37 -13,16 -26,34 -37,54 -11,21 -21,43 -29,67l-150 708 -305 0z"/>
   <path class="fil1" d="M8967 800c-77,115 -265,398 -334,491 -392,538 -653,477 -1182,776 -77,44 -188,134 -251,197 51,-133 145,-293 224,-409 112,-163 256,-334 481,-512 97,-77 210,-150 327,-216 145,-83 296,-155 431,-215 108,-48 215,-85 304,-114zm-1869 1511c-2,-116 -13,-374 -75,-541 -81,-221 -179,-450 -469,-585 -182,-85 -288,-129 -342,-149 17,18 34,36 52,53 291,301 575,595 743,987 23,54 48,112 70,175 7,20 14,40 21,61z"/>
   <path class="fil2" d="M7192 2166c20,-130 69,-345 182,-550 180,-327 339,-506 651,-630 256,-102 749,-195 917,-225 -88,28 -192,65 -297,112 -137,60 -290,134 -435,217 -118,67 -233,141 -333,220 -229,181 -386,342 -500,510 -74,109 -135,224 -185,348zm-1021 -1110c23,267 25,616 208,816 149,162 467,269 650,427 -16,-60 -35,-115 -71,-200 -165,-384 -437,-680 -725,-978 -21,-21 -41,-43 -62,-64z"/>
  </g>
 </g>
</svg>
